<svg width="237.3" height="37.601" viewBox="0 0 237.3 37.601" xmlns="http://www.w3.org/2000/svg"><g id="svgGroup" stroke-linecap="round" fill-rule="evenodd" font-size="9pt" stroke="#ffffff00" stroke-width="0.25mm" fill="#5500ff" style="stroke:#ffffff00;stroke-width:0.25mm;fill:#5500ff"><path d="M 203.8 37 L 199.3 37 L 199.3 11 L 203.65 11 L 203.65 15.35 Q 205.05 13.25 207.2 11.825 A 8.603 8.603 0 0 1 211.801 10.404 A 10.428 10.428 0 0 1 212.1 10.4 A 10.497 10.497 0 0 1 214.309 10.62 Q 215.956 10.974 217.175 11.9 Q 219.15 13.4 219.95 15.9 Q 221.5 13.6 223.625 12 A 7.834 7.834 0 0 1 227.02 10.558 A 10.723 10.723 0 0 1 228.9 10.4 A 10.718 10.718 0 0 1 231.344 10.661 Q 233.137 11.081 234.381 12.175 A 6.497 6.497 0 0 1 235.225 13.075 Q 237.3 15.75 237.3 20.05 L 237.3 37 L 232.8 37 L 232.8 20.4 A 9.521 9.521 0 0 0 232.631 18.555 Q 232.341 17.085 231.55 16.025 A 3.987 3.987 0 0 0 228.643 14.377 A 5.339 5.339 0 0 0 228.1 14.35 Q 225.85 14.35 223.925 16.025 Q 222 17.7 220.55 19.95 L 220.55 37 L 216.05 37 L 216.05 20.4 A 9.521 9.521 0 0 0 215.881 18.555 Q 215.591 17.085 214.8 16.025 A 3.987 3.987 0 0 0 211.893 14.377 A 5.339 5.339 0 0 0 211.35 14.35 A 6.01 6.01 0 0 0 208.191 15.264 A 8.122 8.122 0 0 0 207.2 15.975 Q 205.25 17.6 203.8 19.8 L 203.8 37 Z M 18.2 37 L 12.85 37 L 0 3.25 L 4.65 1.45 L 15.65 31.8 L 26.7 1.6 L 31 3.25 L 18.2 37 Z M 168.85 27.9 L 168.85 11 L 173.35 11 L 173.35 27.3 A 11.491 11.491 0 0 0 173.477 29.067 Q 173.621 29.99 173.928 30.735 A 5.068 5.068 0 0 0 174.65 31.975 A 4.202 4.202 0 0 0 177.207 33.485 A 6.403 6.403 0 0 0 178.45 33.6 Q 180.5 33.6 182.425 32.775 Q 184.35 31.95 185.85 30.55 L 185.85 11 L 190.35 11 L 190.35 30.25 A 7.801 7.801 0 0 0 190.401 31.177 Q 190.567 32.558 191.275 33.075 Q 192.2 33.75 193.3 33.75 L 192.35 37.25 Q 187.7 37.25 186.6 33.55 Q 184.85 35.35 182.55 36.475 Q 180.25 37.6 177.6 37.6 Q 175.35 37.6 173.35 36.65 A 7.22 7.22 0 0 1 170.595 34.331 A 9.133 9.133 0 0 1 170.1 33.575 A 8.12 8.12 0 0 1 169.268 31.528 Q 169.007 30.543 168.909 29.372 A 17.686 17.686 0 0 1 168.85 27.9 Z M 131.5 37 L 127 37 L 127 11 L 131.35 11 L 131.35 15.35 Q 132.75 13.25 134.925 11.825 A 8.658 8.658 0 0 1 138.478 10.513 A 11.315 11.315 0 0 1 140.1 10.4 A 11.612 11.612 0 0 1 142.633 10.659 Q 145.18 11.228 146.675 13.05 Q 148.85 15.7 148.85 20.05 L 148.85 37 L 144.35 37 L 144.35 20.55 A 9.632 9.632 0 0 0 144.179 18.68 Q 143.874 17.139 143.025 16.05 A 4.29 4.29 0 0 0 139.887 14.373 A 6.031 6.031 0 0 0 139.35 14.35 A 6.561 6.561 0 0 0 135.925 15.332 A 8.677 8.677 0 0 0 135 15.975 Q 132.95 17.6 131.5 19.8 L 131.5 37 Z M 52.2 34.85 L 52.2 37 L 48 37 L 48 0 L 52.5 0 L 52.5 13.7 A 7.755 7.755 0 0 1 53.444 12.796 Q 53.952 12.38 54.587 11.974 A 16.657 16.657 0 0 1 55.425 11.475 Q 57.35 10.4 60 10.4 Q 63 10.4 65.625 11.975 A 11.165 11.165 0 0 1 69.214 15.459 A 13.732 13.732 0 0 1 69.85 16.525 A 12.842 12.842 0 0 1 71.098 20.046 Q 71.417 21.597 71.447 23.379 A 22.136 22.136 0 0 1 71.45 23.75 A 16.658 16.658 0 0 1 71.107 27.194 A 13.875 13.875 0 0 1 70.45 29.4 A 14.683 14.683 0 0 1 68.869 32.402 A 12.741 12.741 0 0 1 67.775 33.775 A 12.447 12.447 0 0 1 64.709 36.232 A 11.651 11.651 0 0 1 64 36.6 A 10.003 10.003 0 0 1 60.317 37.58 A 9.605 9.605 0 0 1 59.7 37.6 Q 57.45 37.6 55.475 36.775 A 15.137 15.137 0 0 1 53.824 35.971 Q 52.911 35.452 52.2 34.85 Z M 113.95 13.1 L 113.95 11 L 118.05 11 L 118.05 30.7 Q 118.05 32.6 118.975 33.175 Q 119.9 33.75 121 33.75 L 120.05 37.25 A 8.861 8.861 0 0 1 117.918 37.014 Q 115.004 36.29 114.25 33.35 A 10.654 10.654 0 0 1 112.695 35.063 A 14.249 14.249 0 0 1 111.125 36.275 A 7.464 7.464 0 0 1 108.648 37.327 Q 107.485 37.6 106.1 37.6 Q 102.85 37.6 100.2 35.95 A 11.473 11.473 0 0 1 96.493 32.187 A 13.961 13.961 0 0 1 95.975 31.275 A 13.614 13.614 0 0 1 94.66 27.304 A 18.322 18.322 0 0 1 94.4 24.15 A 16.571 16.571 0 0 1 94.898 20.016 A 13.984 13.984 0 0 1 95.975 17.15 Q 97.55 14.05 100.325 12.225 A 11.149 11.149 0 0 1 105.922 10.422 A 13.694 13.694 0 0 1 106.7 10.4 A 11.292 11.292 0 0 1 109.097 10.645 A 9.352 9.352 0 0 1 110.775 11.175 A 13.001 13.001 0 0 1 112.918 12.322 A 11.052 11.052 0 0 1 113.95 13.1 Z M 82.2 37 L 77.7 37 L 77.7 11 L 82.05 11 L 82.05 16.65 Q 82.7 15 83.8 13.575 Q 84.9 12.15 86.55 11.275 Q 88.2 10.4 90.4 10.4 Q 91.15 10.4 91.9 10.475 A 9.486 9.486 0 0 1 92.427 10.542 Q 92.677 10.581 92.891 10.631 A 4.408 4.408 0 0 1 93.15 10.7 L 91.8 15.35 A 4.881 4.881 0 0 0 90.727 15.044 Q 90.18 14.95 89.55 14.95 A 6.479 6.479 0 0 0 86.235 15.873 A 7.804 7.804 0 0 0 86.025 16 A 6.701 6.701 0 0 0 84.289 17.598 Q 83.737 18.311 83.289 19.221 A 11.373 11.373 0 0 0 83.275 19.25 Q 82.394 21.054 82.235 23.664 A 19.545 19.545 0 0 0 82.2 24.85 L 82.2 37 Z M 40 37 L 35.5 37 L 35.5 11 L 40 11 L 40 37 Z M 161.1 37 L 156.6 37 L 156.6 11 L 161.1 11 L 161.1 37 Z M 113.55 30.35 L 113.55 16.4 Q 112.2 15.45 110.575 14.875 Q 108.95 14.3 107.15 14.3 Q 104.75 14.3 102.925 15.525 A 8.15 8.15 0 0 0 100.415 18.237 A 9.981 9.981 0 0 0 100.05 18.925 Q 99 21.1 99 24 Q 99 26.8 100.05 28.975 A 8.801 8.801 0 0 0 101.603 31.248 A 7.848 7.848 0 0 0 102.95 32.375 Q 104.8 33.6 107.1 33.6 Q 109 33.6 110.7 32.675 Q 112.4 31.75 113.55 30.35 Z M 52.5 17.7 L 52.5 31.6 A 8.995 8.995 0 0 0 54.315 32.693 A 10.901 10.901 0 0 0 55.2 33.05 A 9.731 9.731 0 0 0 58.282 33.598 A 11.019 11.019 0 0 0 58.5 33.6 A 8.495 8.495 0 0 0 61.008 33.241 A 7.373 7.373 0 0 0 62.825 32.4 A 7.976 7.976 0 0 0 65.401 29.695 A 9.824 9.824 0 0 0 65.775 29 A 10.434 10.434 0 0 0 66.699 25.977 A 13.739 13.739 0 0 0 66.85 23.9 A 14.024 14.024 0 0 0 66.652 21.479 Q 66.388 19.976 65.775 18.75 Q 64.7 16.6 62.925 15.45 Q 61.15 14.3 59 14.3 A 7.371 7.371 0 0 0 56.187 14.831 A 7.027 7.027 0 0 0 55.125 15.375 Q 53.656 16.29 52.785 17.333 A 6.47 6.47 0 0 0 52.5 17.7 Z M 37.75 6.55 Q 36.45 6.55 35.525 5.6 A 3.322 3.322 0 0 1 34.846 4.609 A 2.996 2.996 0 0 1 34.6 3.4 A 3.994 3.994 0 0 1 34.715 2.416 A 2.794 2.794 0 0 1 35.45 1.1 A 2.831 2.831 0 0 1 36.922 0.329 A 4.132 4.132 0 0 1 37.75 0.25 A 3.029 3.029 0 0 1 39.946 1.146 A 3.7 3.7 0 0 1 39.975 1.175 A 3.03 3.03 0 0 1 40.9 3.359 A 3.627 3.627 0 0 1 40.9 3.4 Q 40.9 4.8 40.05 5.675 A 2.824 2.824 0 0 1 38.498 6.485 A 4.088 4.088 0 0 1 37.75 6.55 Z M 158.85 6.55 Q 157.55 6.55 156.625 5.6 A 3.322 3.322 0 0 1 155.946 4.609 A 2.996 2.996 0 0 1 155.7 3.4 A 3.994 3.994 0 0 1 155.815 2.416 A 2.794 2.794 0 0 1 156.55 1.1 A 2.831 2.831 0 0 1 158.022 0.329 A 4.132 4.132 0 0 1 158.85 0.25 A 3.029 3.029 0 0 1 161.046 1.146 A 3.7 3.7 0 0 1 161.075 1.175 A 3.03 3.03 0 0 1 162 3.359 A 3.627 3.627 0 0 1 162 3.4 Q 162 4.8 161.15 5.675 A 2.824 2.824 0 0 1 159.598 6.485 A 4.088 4.088 0 0 1 158.85 6.55 Z" vector-effect="non-scaling-stroke"/></g></svg>